<svg version="1.1" id="Layer_1" xmlns="http://www.w3.org/2000/svg" xmlns:xlink="http://www.w3.org/1999/xlink" x="0px" y="0px"
	 width="100%" viewBox="0 0 256 256" enable-background="new 0 0 256 256" xml:space="preserve">
<path fill="#FEFEFE" opacity="1.000000" stroke="none" 
	d="
M1.000000,88.000000 
	C1.000000,58.666672 1.000000,29.833344 1.000000,1.000012 
	C86.333313,1.000008 171.666626,1.000008 256.999939,1.000004 
	C256.999969,86.333290 256.999969,171.666580 257.000000,256.999908 
	C171.666718,256.999939 86.333435,256.999939 1.000076,256.999969 
	C1.000000,200.833328 1.000000,144.666672 1.000000,88.000000 
M110.267143,236.513031 
	C110.908157,235.469284 111.549171,234.425552 112.781204,233.030579 
	C113.302429,231.553665 113.823654,230.076767 114.900612,228.012970 
	C114.965019,226.686935 115.029427,225.360901 115.292168,223.111206 
	C115.375656,206.758209 115.459145,190.405212 116.537102,173.961151 
	C119.869987,173.952652 123.220444,173.716721 126.532898,173.972656 
	C147.531555,175.595108 165.802963,168.721283 181.912216,155.795334 
	C185.873672,152.616699 188.684494,148.004059 192.256180,143.490128 
	C192.858200,142.709564 193.460236,141.929001 194.643539,140.800461 
	C195.942490,138.924515 197.241440,137.048553 199.042206,134.817535 
	C199.537277,133.938339 200.032349,133.059143 200.903244,131.989807 
	C201.036072,131.601089 201.168900,131.212387 201.868805,130.361603 
	C202.960419,128.025909 204.052048,125.690216 205.661667,123.041458 
	C205.876129,122.276390 206.090607,121.511314 206.866486,120.171158 
	C211.358780,108.712700 213.475815,96.856819 212.133163,84.583572 
	C211.679688,80.438332 210.461197,76.325706 209.170074,72.334778 
	C207.072372,65.850693 204.626831,59.479126 202.174713,52.446884 
	C194.645706,39.915733 184.889252,29.795404 170.801605,23.284082 
	C163.187729,21.122456 155.628387,17.351118 147.950089,17.091011 
	C121.391678,16.191336 94.791893,16.488863 68.207664,16.442438 
	C66.794014,16.439968 65.378578,17.462667 63.702003,18.373922 
	C63.702003,18.373922 63.664867,18.822317 62.928810,18.842836 
	C59.050259,20.168436 57.045784,22.912619 55.970905,26.997131 
	C55.310024,28.457880 54.109985,29.906708 54.077389,31.381344 
	C53.891670,39.782139 53.983547,48.189083 53.982616,56.593937 
	C53.981468,66.995483 54.082081,77.398201 53.960670,87.798340 
	C53.708641,109.387222 53.306992,130.974365 53.057465,152.563263 
	C53.025249,155.350586 53.780876,158.147598 53.742191,160.934158 
	C53.598228,171.302689 53.140797,181.667892 53.077576,192.036041 
	C53.047401,196.985001 53.897633,201.938675 53.879997,206.888519 
	C53.859390,212.672867 53.031742,218.457794 53.079029,224.238190 
	C53.173420,235.777145 57.977367,243.795120 66.606750,246.238678 
	C77.323616,249.273346 88.369652,249.078445 99.068649,246.570923 
	C103.684570,245.489105 109.071243,243.338898 110.267143,236.513031 
z"/>
<path fill="#040404" opacity="1.000000" stroke="none" 
	d="
M200.527435,132.179947 
	C200.032349,133.059143 199.537277,133.938339 198.419556,134.968048 
	C196.552032,137.128510 195.307144,139.138458 194.062256,141.148438 
	C193.460236,141.929001 192.858200,142.709564 191.905197,143.803253 
	C191.554214,144.116394 191.091614,144.222733 190.921280,143.947281 
	C186.655853,144.684570 184.050827,147.120270 183.328598,151.261246 
	C183.283493,151.125458 183.359009,151.391174 182.976593,151.278152 
	C179.394089,153.690552 176.194000,156.215973 172.717194,158.976654 
	C154.897400,170.147705 135.269226,170.334824 115.200203,169.496338 
	C115.352669,171.524796 115.447655,172.788513 115.542633,174.052216 
	C115.459145,190.405212 115.375656,206.758209 114.867332,223.300812 
	C114.292885,211.053070 114.126343,198.615875 114.001930,186.178284 
	C113.951721,181.158920 113.993660,176.138657 113.993660,171.118805 
	C113.044930,189.046356 113.019089,206.957932 113.100845,224.868988 
	C113.106522,226.114471 113.911560,227.356323 114.344872,228.599854 
	C113.823654,230.076767 113.302429,231.553665 112.323608,232.923798 
	C109.245743,235.127579 106.625473,237.438141 104.005203,239.748688 
	C104.456978,239.886108 104.908752,240.023544 105.140846,240.486237 
	C93.833122,245.150177 82.415016,243.010437 70.838547,242.350006 
	C69.003616,241.295807 67.411873,240.427109 65.857391,239.248657 
	C65.222946,238.643875 64.551239,238.348846 63.599220,237.969498 
	C62.871738,237.274384 62.424561,236.663605 62.089432,235.757782 
	C61.765121,233.567917 61.328758,231.673065 60.900314,229.812607 
	C59.868401,230.677917 59.084850,231.334961 58.154381,231.604950 
	C57.701675,228.813095 57.395893,226.408295 57.436752,224.033478 
	C62.090008,224.364105 59.876724,221.003387 59.879730,219.624298 
	C60.016056,157.072861 59.997906,94.521065 59.997879,31.969320 
	C59.997875,30.678444 59.997879,29.387568 59.997879,27.925541 
	C58.857082,28.345964 57.974812,28.671110 57.014137,28.662201 
	C56.882702,27.875557 56.829674,27.422966 56.776649,26.970375 
	C57.045784,22.912619 59.050259,20.168436 63.784729,18.885723 
	C92.340942,18.928612 120.041237,18.928612 147.741531,18.928612 
	C147.740143,18.621782 147.738754,18.314953 147.737366,18.008123 
	C119.812897,18.008123 91.888435,18.008123 63.963970,18.008121 
	C65.378578,17.462667 66.794014,16.439968 68.207664,16.442438 
	C94.791893,16.488863 121.391678,16.191336 147.950089,17.091011 
	C155.628387,17.351118 163.187729,21.122456 170.755051,23.755131 
	C171.076233,24.946972 171.257355,26.045349 171.839188,26.332911 
	C184.024475,32.355289 193.283447,41.421043 200.142105,53.078850 
	C200.326736,53.392666 201.575546,53.080387 202.328110,53.060070 
	C204.626831,59.479126 207.072372,65.850693 209.170074,72.334778 
	C210.461197,76.325706 211.679688,80.438332 212.133163,84.583572 
	C213.475815,96.856819 211.358780,108.712700 206.522247,120.141602 
	C205.743896,119.882210 205.309784,119.652367 204.875656,119.422523 
	C204.964996,120.733192 205.054337,122.043861 205.143677,123.354530 
	C204.052048,125.690216 202.960419,128.025909 201.525146,130.268616 
	C200.833313,129.810394 200.485138,129.445160 200.136963,129.079941 
	C200.267120,130.113281 200.397263,131.146606 200.527435,132.179947 
M186.635620,134.916916 
	C188.681015,133.424454 191.409286,132.278107 189.913376,128.224518 
	C191.768921,125.402756 193.624466,122.581001 195.776794,120.084839 
	C195.965958,120.069557 196.155121,120.054276 196.344284,120.039001 
	C196.112564,119.876022 195.880859,119.713036 195.145966,118.929680 
	C195.842453,117.297462 196.538940,115.665245 197.648392,114.395424 
	C198.110001,114.567482 198.922745,114.969139 198.982162,114.878242 
	C200.734680,112.197807 201.784882,109.414467 199.677490,105.597458 
	C200.099319,102.315102 200.646744,99.043190 200.920654,95.748543 
	C201.959366,83.254471 199.237015,71.481308 194.111191,59.647575 
	C193.590149,59.115101 193.069107,58.582630 192.169266,57.775135 
	C192.031555,57.491959 191.955292,57.193134 192.486664,56.225945 
	C192.316650,53.327148 191.371750,51.126999 187.400665,51.049797 
	C187.253189,50.733284 187.105713,50.416771 187.186722,49.491482 
	C186.293991,48.714630 185.401245,47.937778 184.006241,46.922340 
	C183.288040,46.089142 182.569824,45.255939 181.894363,43.677998 
	C179.723831,38.259491 174.801224,36.202641 169.897018,33.695076 
	C169.805527,33.650120 169.714050,33.605164 169.622559,33.560204 
	C169.736847,33.715714 169.851135,33.871227 169.918137,34.739948 
	C169.893890,34.976963 169.869629,35.213982 169.140442,35.242226 
	C161.766418,32.785900 154.392395,30.329571 147.263992,27.352947 
	C147.167877,26.571218 147.071762,25.789492 146.043396,25.009701 
	C122.583008,25.008615 99.122566,24.984661 75.662361,25.049538 
	C73.770462,25.054771 71.880264,25.670242 69.311058,26.068796 
	C68.540245,27.041529 67.769432,28.014261 66.396370,29.570332 
	C66.265839,30.715582 66.021431,31.860800 66.021088,33.006088 
	C66.002472,96.135666 66.004105,159.265244 66.005768,222.394821 
	C66.005798,223.393829 65.777229,224.507523 66.153900,225.342896 
	C66.339104,225.753647 67.667526,225.648926 68.906380,226.172546 
	C69.082062,226.726944 69.257744,227.281326 68.845650,228.136749 
	C68.970367,228.910263 69.095085,229.683777 69.219795,230.457291 
	C69.848000,230.217590 70.476212,229.977890 71.820396,230.024780 
	C74.141243,230.626968 76.443336,231.644577 78.786591,231.750366 
	C84.856300,232.024399 90.944145,231.896683 96.481674,232.579102 
	C89.372864,232.579102 82.264053,232.579102 75.155243,232.579102 
	C75.159462,233.050858 75.163681,233.522629 75.167900,233.994385 
	C82.128624,233.994385 89.089569,234.023788 96.049927,233.973099 
	C97.730003,233.960861 97.729118,233.839035 97.968124,231.392120 
	C98.542458,231.222122 99.116791,231.052124 100.275192,230.719940 
	C100.526772,230.413559 100.778351,230.107193 101.212509,229.307846 
	C101.375237,229.242844 101.537956,229.177841 101.911446,229.738251 
	C102.745224,229.454788 103.578995,229.171326 104.412773,228.887878 
	C104.057121,228.193481 103.701477,227.499084 103.402519,226.257599 
	C103.826080,225.517487 104.249641,224.777359 105.598434,223.763245 
	C106.063377,222.449188 106.926376,221.137192 106.933136,219.820801 
	C107.023712,202.176514 107.055954,184.531097 106.900574,166.887726 
	C106.885071,165.128235 105.547211,163.380402 104.899330,160.833313 
	C106.936836,160.072083 108.955910,158.714661 111.014984,158.651001 
	C120.829056,158.347610 130.654007,158.395813 139.904129,159.080551 
	C137.994904,159.389786 136.088379,159.944977 134.175980,159.966080 
	C125.457390,160.062210 116.737160,160.008255 108.017517,160.008255 
	C118.775269,160.983780 129.529297,161.029449 140.279968,160.860886 
	C140.872330,160.851593 141.436798,159.062561 142.819000,157.904648 
	C149.816299,155.743240 156.813614,153.581818 164.129471,152.091141 
	C168.302902,153.078918 170.253693,150.063522 172.441971,147.475876 
	C172.200684,147.273499 171.959412,147.071121 171.918091,146.357513 
	C172.244141,146.223846 172.570175,146.090179 173.488632,146.180161 
	C174.637054,145.392899 175.785477,144.605637 177.031555,143.323853 
	C177.331680,143.207794 177.631790,143.091736 178.632004,142.933884 
	C181.074081,140.265503 183.516159,137.597107 185.997772,134.991577 
	C185.997772,134.991577 185.930466,134.960236 186.635620,134.916916 
M133.448639,167.991394 
	C136.582764,167.991394 139.716888,167.991394 142.851028,167.991394 
	C142.843704,167.765472 142.836380,167.539536 142.829071,167.313614 
	C133.954178,167.313614 125.079277,167.313614 116.204384,167.313614 
	C116.203972,167.539551 116.203568,167.765472 116.203156,167.991409 
	C121.623886,167.991409 127.044617,167.991409 133.448639,167.991394 
z"/>
<path fill="#E5E5E5" opacity="1.000000" stroke="none" 
	d="
M57.090111,224.003510 
	C57.395893,226.408295 57.701675,228.813095 58.156578,231.939697 
	C59.277092,233.750000 60.248486,234.838501 60.928612,236.115463 
	C60.695324,239.721130 67.449821,245.264755 70.458084,244.264313 
	C70.817825,244.144684 70.881065,243.133469 71.081741,242.535522 
	C82.415016,243.010437 93.833122,245.150177 105.454430,240.440521 
	C107.336563,239.079208 108.685440,238.088882 110.034309,237.098541 
	C109.071243,243.338898 103.684570,245.489105 99.068649,246.570923 
	C88.369652,249.078445 77.323616,249.273346 66.606750,246.238678 
	C57.977367,243.795120 53.173420,235.777145 53.079029,224.238190 
	C53.031742,218.457794 53.859390,212.672867 53.879997,206.888519 
	C53.897633,201.938675 53.047401,196.985001 53.077576,192.036041 
	C53.140797,181.667892 53.598228,171.302689 53.742191,160.934158 
	C53.780876,158.147598 53.025249,155.350586 53.057465,152.563263 
	C53.306992,130.974365 53.708641,109.387222 53.960670,87.798340 
	C54.082081,77.398201 53.981468,66.995483 53.982616,56.593937 
	C53.983547,48.189083 53.891670,39.782139 54.077389,31.381344 
	C54.109985,29.906708 55.310024,28.457880 56.373779,26.983753 
	C56.829674,27.422966 56.882702,27.875557 56.925766,29.123812 
	C56.907063,93.622086 56.897415,157.324692 56.897945,221.027298 
	C56.897953,222.019363 57.023273,223.011444 57.090111,224.003510 
z"/>
<path fill="#D0D1D1" opacity="1.000000" stroke="none" 
	d="
M191.091614,144.222733 
	C191.091614,144.222733 191.554214,144.116394 191.789246,144.083542 
	C188.684494,148.004059 185.873672,152.616699 181.912216,155.795334 
	C165.802963,168.721283 147.531555,175.595108 126.532898,173.972656 
	C123.220444,173.716721 119.869987,173.952652 116.039871,174.006683 
	C115.447655,172.788513 115.352669,171.524796 115.200203,169.496338 
	C135.269226,170.334824 154.897400,170.147705 173.040100,158.903107 
	C176.879486,156.193268 180.119247,153.792221 183.359009,151.391174 
	C183.359009,151.391174 183.283493,151.125458 183.639862,151.146240 
	C186.361359,148.852249 188.726486,146.537491 191.091614,144.222733 
z"/>
<path fill="#060606" opacity="1.000000" stroke="none" 
	d="
M202.251404,52.753479 
	C201.575546,53.080387 200.326736,53.392666 200.142105,53.078850 
	C193.283447,41.421043 184.024475,32.355289 171.839188,26.332911 
	C171.257355,26.045349 171.076233,24.946972 170.979980,24.051075 
	C184.889252,29.795404 194.645706,39.915733 202.251404,52.753479 
z"/>
<path fill="#282828" opacity="1.000000" stroke="none" 
	d="
M63.832985,18.191023 
	C91.888435,18.008123 119.812897,18.008123 147.737366,18.008123 
	C147.738754,18.314953 147.740143,18.621782 147.741531,18.928612 
	C120.041237,18.928612 92.340942,18.928612 64.152756,18.875465 
	C63.664867,18.822317 63.702003,18.373922 63.832985,18.191023 
z"/>
<path fill="#1F1F1F" opacity="1.000000" stroke="none" 
	d="
M114.622742,228.306412 
	C113.911560,227.356323 113.106522,226.114471 113.100845,224.868988 
	C113.019089,206.957932 113.044930,189.046356 113.993660,171.118805 
	C113.993660,176.138657 113.951721,181.158920 114.001930,186.178284 
	C114.126343,198.615875 114.292885,211.053070 114.768166,223.762634 
	C115.029427,225.360901 114.965019,226.686935 114.622742,228.306412 
z"/>
<path fill="#060606" opacity="1.000000" stroke="none" 
	d="
M110.150726,236.805786 
	C108.685440,238.088882 107.336563,239.079208 105.674110,240.115265 
	C104.908752,240.023544 104.456978,239.886108 104.005203,239.748688 
	C106.625473,237.438141 109.245743,235.127579 112.028107,233.099411 
	C111.549171,234.425552 110.908157,235.469284 110.150726,236.805786 
z"/>
<path fill="#060606" opacity="1.000000" stroke="none" 
	d="
M194.352905,140.974442 
	C195.307144,139.138458 196.552032,137.128510 198.168655,135.145584 
	C197.241440,137.048553 195.942490,138.924515 194.352905,140.974442 
z"/>
<path fill="#060606" opacity="1.000000" stroke="none" 
	d="
M205.402679,123.197998 
	C205.054337,122.043861 204.964996,120.733192 204.875656,119.422523 
	C205.309784,119.652367 205.743896,119.882210 206.241547,120.429146 
	C206.090607,121.511314 205.876129,122.276390 205.402679,123.197998 
z"/>
<path fill="#060606" opacity="1.000000" stroke="none" 
	d="
M200.715332,132.084869 
	C200.397263,131.146606 200.267120,130.113281 200.136963,129.079941 
	C200.485138,129.445160 200.833313,129.810394 201.241608,130.499649 
	C201.168900,131.212387 201.036072,131.601089 200.715332,132.084869 
z"/>
<path fill="#F8F8F8" opacity="1.000000" stroke="none" 
	d="
M140.475082,158.318909 
	C130.654007,158.395813 120.829056,158.347610 111.014984,158.651001 
	C108.955910,158.714661 106.936836,160.072083 104.560699,161.561142 
	C104.181000,170.479477 104.139923,178.669983 104.023773,187.243439 
	C104.149811,190.016861 104.350906,192.407303 104.574265,195.095520 
	C104.611511,203.305298 104.626511,211.217300 104.373672,219.300476 
	C104.297791,220.946823 104.489723,222.421997 104.665649,223.931335 
	C104.649635,223.965515 104.673195,224.037231 104.673203,224.037231 
	C104.249641,224.777359 103.826080,225.517487 103.193634,226.691101 
	C102.556725,227.787354 102.128708,228.450089 101.700684,229.112839 
	C101.537956,229.177841 101.375237,229.242844 100.826355,229.636841 
	C100.190514,230.271255 99.940819,230.576691 99.691116,230.882141 
	C99.116791,231.052124 98.542458,231.222122 97.612000,231.539459 
	C97.255875,231.686783 97.024750,231.929367 97.024750,231.929367 
	C90.944145,231.896683 84.856300,232.024399 78.786591,231.750366 
	C76.443336,231.644577 74.141243,230.626968 71.392029,229.628143 
	C70.453575,228.766251 69.943497,228.300995 69.433426,227.835724 
	C69.257744,227.281326 69.082062,226.726944 68.642700,225.522552 
	C68.310577,223.544739 68.182434,222.216904 68.182236,220.889053 
	C68.173019,158.485703 68.172920,96.082336 68.187469,33.678982 
	C68.187813,32.187820 68.366188,30.696705 68.775696,28.947189 
	C70.326790,28.361641 71.563705,27.749441 72.800644,27.749390 
	C97.539886,27.748365 122.279129,27.817928 147.018372,27.873241 
	C154.392395,30.329571 161.766418,32.785900 169.691467,35.603333 
	C174.112198,38.783875 177.981903,41.603310 181.851608,44.422741 
	C182.569824,45.255939 183.288040,46.089142 184.390656,47.337494 
	C185.502792,48.535187 186.230515,49.317722 186.958221,50.100254 
	C187.105713,50.416771 187.253189,50.733284 187.764679,51.427887 
	C189.399292,53.496868 190.669907,55.187763 191.940506,56.878658 
	C191.955292,57.193134 192.031555,57.491959 192.479309,58.222630 
	C193.159683,59.192043 193.530029,59.713959 193.900375,60.235878 
	C199.237015,71.481308 201.959366,83.254471 200.920654,95.748543 
	C200.646744,99.043190 200.099319,102.315102 199.454910,106.260406 
	C198.566696,109.293251 197.901062,111.663139 197.235428,114.033028 
	C196.538940,115.665245 195.842453,117.297462 195.377502,119.310143 
	C195.609055,119.690605 195.480026,119.759254 195.480011,119.759247 
	C193.624466,122.581001 191.768921,125.402756 189.513687,128.709839 
	C188.052826,131.116837 186.991638,133.038528 185.930450,134.960236 
	C185.930466,134.960236 185.997772,134.991577 185.637909,135.024841 
	C182.829315,137.697281 180.380615,140.336472 177.931915,142.975677 
	C177.631790,143.091736 177.331680,143.207794 176.636841,143.574738 
	C175.126831,144.535934 174.011536,145.246231 172.896225,145.956512 
	C172.570175,146.090179 172.244141,146.223846 171.493256,146.687622 
	C168.649261,148.485306 166.230087,149.952866 163.810913,151.420410 
	C156.813614,153.581818 149.816299,155.743240 142.222794,157.925400 
	C141.242752,158.070404 140.858917,158.194656 140.475082,158.318909 
M153.636337,141.956589 
	C153.692566,141.438644 153.748795,140.920715 153.892532,140.486877 
	C153.892532,140.486877 153.940628,140.375458 154.630615,140.753220 
	C156.703171,139.937485 158.775726,139.121750 161.257629,138.277161 
	C161.569550,138.034409 161.881470,137.791672 162.778992,137.367371 
	C163.580246,136.761475 164.381500,136.155594 165.843292,135.290054 
	C173.389511,129.465530 179.860291,122.776466 183.832718,113.093803 
	C188.899078,101.303757 190.083710,89.216736 186.556931,76.135193 
	C186.363922,75.756111 186.170914,75.377029 186.065323,74.475922 
	C185.969269,74.327934 185.873199,74.179955 185.724396,73.340881 
	C184.778168,71.576019 183.831940,69.811150 182.857269,67.334137 
	C181.009552,64.490761 179.161819,61.647377 177.143982,58.245152 
	C172.473541,54.380642 167.803116,50.516132 162.717728,46.084629 
	C157.147400,44.402168 151.577057,42.719707 145.362244,40.793884 
	C144.913071,40.848244 144.463882,40.902603 143.088516,40.788826 
	C125.330864,40.779819 107.573135,40.746471 89.815720,40.806271 
	C88.335274,40.811253 86.856941,41.444538 85.207031,41.799980 
	C85.207031,41.799980 84.923149,41.978603 83.675285,41.830887 
	C83.374596,42.122486 83.073906,42.414082 82.258904,42.860878 
	C81.883469,44.446243 81.181496,46.031265 81.179840,47.617020 
	C81.122597,102.576698 81.104195,157.536499 81.239975,212.495895 
	C81.244919,214.493835 82.856682,216.487823 84.342178,219.009995 
	C86.342796,218.713486 88.343414,218.416977 91.008842,217.807098 
	C91.539619,215.286774 92.528801,212.767288 92.533524,210.245987 
	C92.628578,159.485916 92.605324,108.725647 92.634224,57.965424 
	C92.635345,55.990837 92.918060,54.016418 93.001801,52.060467 
	C93.001801,52.060467 93.062828,52.095295 93.989952,52.162430 
	C110.662758,52.099834 127.335556,52.037239 144.790054,52.158302 
	C150.501465,54.448193 156.212891,56.738083 162.307236,59.580551 
	C168.917007,64.365128 172.596527,71.246292 175.764893,79.250313 
	C175.873306,86.704926 175.981735,94.159546 176.151077,101.808990 
	C176.151077,101.808990 176.070572,102.158691 175.698181,102.764938 
	C174.969284,104.785912 174.240372,106.806885 173.030258,109.272507 
	C169.139084,117.728073 162.635559,123.811302 154.420181,129.019592 
	C149.941681,130.801559 145.463196,132.583527 140.943726,134.427200 
	C140.943726,134.427200 140.944122,134.350449 139.914963,134.057617 
	C131.663055,134.036804 123.411156,134.015991 115.284248,133.065598 
	C115.284248,114.176994 115.284248,95.288399 115.284248,76.167900 
	C122.671570,76.167900 129.348236,76.615540 135.938644,76.052879 
	C143.905609,75.372704 149.446426,78.172722 152.830734,86.211655 
	C152.963486,89.140106 153.096237,92.068565 152.919128,95.693756 
	C152.389053,97.384460 151.858978,99.075157 150.919449,101.209801 
	C150.433685,102.078857 149.947906,102.947914 148.975021,104.129967 
	C147.918884,105.247231 146.862732,106.364487 145.108368,107.732475 
	C139.677032,108.740547 134.276581,110.005241 128.803192,110.663689 
	C125.331924,111.081284 123.652901,112.782829 123.386032,115.935776 
	C123.115974,119.126404 124.562630,121.774681 127.915421,121.948769 
	C136.548660,122.397018 145.184250,122.353134 152.900391,115.934334 
	C155.655899,112.500671 158.411392,109.067017 161.708206,105.253952 
	C161.801514,104.836662 161.894821,104.419380 162.372208,103.565208 
	C162.547409,103.042831 162.722610,102.520454 163.229706,101.276909 
	C163.771057,97.856697 164.312393,94.436485 165.007095,90.638687 
	C165.048935,90.347740 164.967590,90.096725 164.875549,89.028687 
	C163.647903,85.203728 162.420258,81.378769 161.210693,77.025345 
	C160.904602,76.642052 160.598526,76.258766 160.062256,75.217003 
	C156.547058,69.709320 151.539795,66.448387 144.378281,64.927658 
	C133.606949,64.902023 122.835457,64.838631 112.064491,64.889168 
	C110.338577,64.897263 108.615059,65.414932 106.245667,65.937912 
	C105.529602,67.289703 104.813538,68.641487 103.922752,70.656937 
	C103.980804,71.106941 104.038864,71.556938 103.946289,72.932709 
	C103.942375,94.906448 103.987259,116.880409 103.889046,138.853729 
	C103.871613,142.755249 105.110619,145.871384 109.157814,145.877518 
	C119.775345,145.893616 130.393707,145.361252 141.677521,145.214188 
	C142.120667,145.119659 142.563797,145.025131 143.755920,144.978195 
	C146.636017,144.044785 149.516098,143.111389 152.749161,142.271988 
	C152.749161,142.271988 152.999786,142.006256 153.636337,141.956589 
z"/>
<path fill="#0B0B0B" opacity="1.000000" stroke="none" 
	d="
M57.436752,224.033478 
	C57.023273,223.011444 56.897953,222.019363 56.897945,221.027298 
	C56.897415,157.324692 56.907063,93.622086 57.004173,29.457867 
	C57.974812,28.671110 58.857082,28.345964 59.997879,27.925541 
	C59.997879,29.387568 59.997875,30.678444 59.997879,31.969320 
	C59.997906,94.521065 60.016056,157.072861 59.879730,219.624298 
	C59.876724,221.003387 62.090008,224.364105 57.436752,224.033478 
z"/>
<path fill="#171717" opacity="1.000000" stroke="none" 
	d="
M68.461533,29.205568 
	C68.366188,30.696705 68.187813,32.187820 68.187469,33.678982 
	C68.172920,96.082336 68.173019,158.485703 68.182236,220.889053 
	C68.182434,222.216904 68.310577,223.544739 68.428818,225.325027 
	C67.667526,225.648926 66.339104,225.753647 66.153900,225.342896 
	C65.777229,224.507523 66.005798,223.393829 66.005768,222.394821 
	C66.004105,159.265244 66.002472,96.135666 66.021088,33.006088 
	C66.021431,31.860800 66.265839,30.715582 67.064743,29.323227 
	C67.975914,29.119270 68.218719,29.162418 68.461533,29.205568 
z"/>
<path fill="#060606" opacity="1.000000" stroke="none" 
	d="
M68.775696,28.947189 
	C68.218719,29.162418 67.975914,29.119270 67.365868,29.031557 
	C67.769432,28.014261 68.540245,27.041529 70.120049,26.031128 
	C94.386223,25.992470 117.843460,26.014050 141.300461,25.947981 
	C143.193069,25.942650 145.083954,25.335340 146.975647,25.007765 
	C147.071762,25.789492 147.167877,26.571218 147.141174,27.613094 
	C122.279129,27.817928 97.539886,27.748365 72.800644,27.749390 
	C71.563705,27.749441 70.326790,28.361641 68.775696,28.947189 
z"/>
<path fill="#111111" opacity="1.000000" stroke="none" 
	d="
M104.641502,219.129318 
	C104.626511,211.217300 104.611511,203.305298 105.061913,194.747467 
	C105.051155,191.687943 104.574997,189.274216 104.098839,186.860489 
	C104.139923,178.669983 104.181000,170.479477 104.522583,161.958069 
	C105.547211,163.380402 106.885071,165.128235 106.900574,166.887726 
	C107.055954,184.531097 107.023712,202.176514 106.933136,219.820801 
	C106.926376,221.137192 106.063377,222.449188 105.135818,223.900238 
	C104.673195,224.037231 104.649635,223.965515 105.137100,223.406754 
	C105.296883,221.608429 104.969193,220.368881 104.641502,219.129318 
z"/>
<path fill="#1D1D1D" opacity="1.000000" stroke="none" 
	d="
M146.509521,25.008732 
	C145.083954,25.335340 143.193069,25.942650 141.300461,25.947981 
	C117.843460,26.014050 94.386223,25.992470 70.459152,25.997803 
	C71.880264,25.670242 73.770462,25.054771 75.662361,25.049538 
	C99.122566,24.984661 122.583008,25.008615 146.509521,25.008732 
z"/>
<path fill="#1D1D1D" opacity="1.000000" stroke="none" 
	d="
M140.189606,158.699738 
	C140.858917,158.194656 141.242752,158.070404 141.820419,158.024048 
	C141.436798,159.062561 140.872330,160.851593 140.279968,160.860886 
	C129.529297,161.029449 118.775269,160.983780 108.017517,160.008255 
	C116.737160,160.008255 125.457390,160.062210 134.175980,159.966080 
	C136.088379,159.944977 137.994904,159.389786 140.189606,158.699738 
z"/>
<path fill="#CACBCB" opacity="1.000000" stroke="none" 
	d="
M70.838547,242.350006 
	C70.881065,243.133469 70.817825,244.144684 70.458084,244.264313 
	C67.449821,245.264755 60.695324,239.721130 61.122391,236.120392 
	C61.607437,235.936859 61.977375,236.052826 61.977379,236.052826 
	C62.424561,236.663605 62.871738,237.274384 63.748291,238.249664 
	C64.725151,238.928909 65.272644,239.243668 65.820129,239.558411 
	C67.411873,240.427109 69.003616,241.295807 70.838547,242.350006 
z"/>
<path fill="#060606" opacity="1.000000" stroke="none" 
	d="
M181.872986,44.050369 
	C177.981903,41.603310 174.112198,38.783875 170.043930,35.707726 
	C169.869629,35.213982 169.893890,34.976963 169.958862,34.368927 
	C169.999588,33.997910 170.027969,33.963364 170.027969,33.963364 
	C174.801224,36.202641 179.723831,38.259491 181.872986,44.050369 
z"/>
<path fill="#1F1F1F" opacity="1.000000" stroke="none" 
	d="
M132.957001,167.991394 
	C127.044617,167.991409 121.623886,167.991409 116.203156,167.991409 
	C116.203568,167.765472 116.203972,167.539551 116.204384,167.313614 
	C125.079277,167.313614 133.954178,167.313614 142.829071,167.313614 
	C142.836380,167.539536 142.843704,167.765472 142.851028,167.991394 
	C139.716888,167.991394 136.582764,167.991394 132.957001,167.991394 
z"/>
<path fill="#242424" opacity="1.000000" stroke="none" 
	d="
M96.753212,232.254242 
	C97.024750,231.929367 97.255875,231.686783 97.405807,231.761536 
	C97.729118,233.839035 97.730003,233.960861 96.049927,233.973099 
	C89.089569,234.023788 82.128624,233.994385 75.167900,233.994385 
	C75.163681,233.522629 75.159462,233.050858 75.155243,232.579102 
	C82.264053,232.579102 89.372864,232.579102 96.753212,232.254242 
z"/>
<path fill="#060606" opacity="1.000000" stroke="none" 
	d="
M182.976593,151.278152 
	C180.119247,153.792221 176.879486,156.193268 173.316818,158.667847 
	C176.194000,156.215973 179.394089,153.690552 182.976593,151.278152 
z"/>
<path fill="#060606" opacity="1.000000" stroke="none" 
	d="
M190.921280,143.947281 
	C188.726486,146.537491 186.361359,148.852249 183.684967,151.282013 
	C184.050827,147.120270 186.655853,144.684570 190.921280,143.947281 
z"/>
<path fill="#060606" opacity="1.000000" stroke="none" 
	d="
M163.970184,151.755783 
	C166.230087,149.952866 168.649261,148.485306 171.393280,146.943237 
	C171.959412,147.071121 172.200684,147.273499 172.441971,147.475876 
	C170.253693,150.063522 168.302902,153.078918 163.970184,151.755783 
z"/>
<path fill="#060606" opacity="1.000000" stroke="none" 
	d="
M178.281952,142.954773 
	C180.380615,140.336472 182.829315,137.697281 185.618134,134.993408 
	C183.516159,137.597107 181.074081,140.265503 178.281952,142.954773 
z"/>
<path fill="#060606" opacity="1.000000" stroke="none" 
	d="
M197.441910,114.214226 
	C197.901062,111.663139 198.566696,109.293251 199.499725,106.648758 
	C201.784882,109.414467 200.734680,112.197807 198.982162,114.878242 
	C198.922745,114.969139 198.110001,114.567482 197.441910,114.214226 
z"/>
<path fill="#060606" opacity="1.000000" stroke="none" 
	d="
M186.283035,134.938568 
	C186.991638,133.038528 188.052826,131.116837 189.404724,129.037674 
	C191.409286,132.278107 188.681015,133.424454 186.283035,134.938568 
z"/>
<path fill="#060606" opacity="1.000000" stroke="none" 
	d="
M192.213593,56.552299 
	C190.669907,55.187763 189.399292,53.496868 188.030853,51.490639 
	C191.371750,51.126999 192.316650,53.327148 192.213593,56.552299 
z"/>
<path fill="#060606" opacity="1.000000" stroke="none" 
	d="
M62.089432,235.757782 
	C61.977375,236.052826 61.607437,235.936859 61.413658,235.931915 
	C60.248486,234.838501 59.277092,233.750000 58.303497,232.326752 
	C59.084850,231.334961 59.868401,230.677917 60.900314,229.812607 
	C61.328758,231.673065 61.765121,233.567917 62.089432,235.757782 
z"/>
<path fill="#060606" opacity="1.000000" stroke="none" 
	d="
M101.806061,229.425537 
	C102.128708,228.450089 102.556725,227.787354 103.165291,226.964645 
	C103.701477,227.499084 104.057121,228.193481 104.412773,228.887878 
	C103.578995,229.171326 102.745224,229.454788 101.806061,229.425537 
z"/>
<path fill="#060606" opacity="1.000000" stroke="none" 
	d="
M69.139534,227.986237 
	C69.943497,228.300995 70.453575,228.766251 71.034042,229.484863 
	C70.476212,229.977890 69.848000,230.217590 69.219795,230.457291 
	C69.095085,229.683777 68.970367,228.910263 69.139534,227.986237 
z"/>
<path fill="#060606" opacity="1.000000" stroke="none" 
	d="
M173.192429,146.068329 
	C174.011536,145.246231 175.126831,144.535934 176.588013,143.822021 
	C175.785477,144.605637 174.637054,145.392899 173.192429,146.068329 
z"/>
<path fill="#060606" opacity="1.000000" stroke="none" 
	d="
M187.072479,49.795868 
	C186.230515,49.317722 185.502792,48.535187 184.641800,47.456787 
	C185.401245,47.937778 186.293991,48.714630 187.072479,49.795868 
z"/>
<path fill="#060606" opacity="1.000000" stroke="none" 
	d="
M65.857391,239.248657 
	C65.272644,239.243668 64.725151,238.928909 64.028595,238.333984 
	C64.551239,238.348846 65.222946,238.643875 65.857391,239.248657 
z"/>
<path fill="#060606" opacity="1.000000" stroke="none" 
	d="
M194.005783,59.941727 
	C193.530029,59.713959 193.159683,59.192043 192.668701,58.360142 
	C193.069107,58.582630 193.590149,59.115101 194.005783,59.941727 
z"/>
<path fill="#060606" opacity="1.000000" stroke="none" 
	d="
M195.629089,119.620331 
	C195.880859,119.713036 196.112564,119.876022 196.344284,120.039001 
	C196.155121,120.054276 195.965958,120.069557 195.628418,119.922043 
	C195.480026,119.759254 195.609055,119.690605 195.629089,119.620331 
z"/>
<path fill="#060606" opacity="1.000000" stroke="none" 
	d="
M99.983154,230.801025 
	C99.940819,230.576691 100.190514,230.271255 100.735069,229.883316 
	C100.778351,230.107193 100.526772,230.413559 99.983154,230.801025 
z"/>
<path fill="#060606" opacity="1.000000" stroke="none" 
	d="
M169.982513,34.012325 
	C169.851135,33.871227 169.736847,33.715714 169.622559,33.560204 
	C169.714050,33.605164 169.805527,33.650120 169.962494,33.829220 
	C170.027969,33.963364 169.999588,33.997910 169.982513,34.012325 
z"/>
<path fill="#040404" opacity="1.000000" stroke="none" 
	d="
M152.396179,142.177979 
	C149.516098,143.111389 146.636017,144.044785 143.275833,144.564331 
	C142.449020,143.818710 142.103622,143.198700 141.755356,143.197083 
	C130.852112,143.146042 119.948570,143.155243 109.045082,143.155243 
	C117.983398,144.000092 126.923767,143.945786 135.862366,144.047424 
	C137.582382,144.066971 139.295456,144.698318 141.011734,145.047440 
	C130.393707,145.361252 119.775345,145.893616 109.157814,145.877518 
	C105.110619,145.871384 103.871613,142.755249 103.889046,138.853729 
	C103.987259,116.880409 103.942375,94.906448 104.411804,72.564476 
	C105.251122,73.880211 105.943504,75.562935 105.950073,77.248337 
	C106.026627,96.885818 105.999840,116.523705 106.000389,136.161484 
	C106.000435,137.761322 106.000397,139.361160 106.000397,140.960999 
	C106.994270,117.871117 107.015175,94.784073 106.873077,71.698036 
	C106.869545,71.124107 105.063065,70.561279 104.097466,69.993271 
	C104.813538,68.641487 105.529602,67.289703 106.837219,66.157883 
	C119.412865,66.537521 131.396835,66.719223 143.381439,66.789757 
	C143.961182,66.793175 144.546692,65.819046 145.129501,65.300140 
	C151.539795,66.448387 156.547058,69.709320 159.892975,75.719025 
	C159.865555,77.480103 160.007416,78.739151 160.149277,79.998207 
	C160.399109,79.956947 160.648941,79.915688 160.898773,79.874435 
	C160.996719,79.100891 161.094666,78.327354 161.192596,77.553810 
	C162.420258,81.378769 163.647903,85.203728 164.494049,89.401733 
	C163.542831,89.176094 162.973129,88.577415 162.293854,87.863579 
	C162.293854,90.174355 162.293854,92.167000 162.293854,94.637772 
	C163.360382,93.128952 164.107056,92.072617 164.853745,91.016273 
	C164.312393,94.436485 163.771057,97.856697 162.698395,101.647614 
	C161.693832,102.123627 161.008041,102.064171 160.779404,102.359116 
	C157.641998,106.406204 154.549438,110.488892 151.531219,114.625107 
	C151.379486,114.833054 152.004944,115.608124 152.268539,116.119133 
	C145.184250,122.353134 136.548660,122.397018 127.915421,121.948769 
	C124.562630,121.774681 123.115974,119.126404 123.386032,115.935776 
	C123.652901,112.782829 125.331924,111.081284 128.803192,110.663689 
	C134.276581,110.005241 139.677032,108.740547 145.605347,107.919586 
	C149.729584,108.000816 150.858444,106.559517 149.462128,103.816971 
	C149.947906,102.947914 150.433685,102.078857 151.516861,101.023697 
	C154.889221,99.349442 156.693970,97.676109 153.228973,94.997017 
	C153.096237,92.068565 152.963486,89.140106 152.975250,85.447685 
	C153.469376,79.944389 149.722946,75.968437 143.712067,74.689026 
	C137.332520,74.255836 131.233643,74.008453 125.137352,74.061119 
	C122.101990,74.087349 119.071388,74.663391 115.713547,75.017639 
	C114.593346,75.699615 113.798210,76.354660 113.004318,77.477356 
	C113.005791,94.900871 112.978065,111.856842 113.048866,128.812408 
	C113.056068,130.538544 113.655380,132.262192 114.274757,133.990326 
	C114.766144,133.994186 114.962700,133.994690 115.159248,133.995178 
	C123.411156,134.015991 131.663055,134.036804 140.169891,134.446533 
	C140.260361,135.322479 140.095932,135.809479 139.931503,136.296494 
	C140.152496,136.356796 140.373474,136.417099 140.594467,136.477402 
	C140.724533,135.773438 140.854614,135.069458 140.984680,134.365494 
	C145.463196,132.583527 149.941681,130.801559 155.110535,129.266541 
	C161.592758,128.296097 173.795273,115.862083 174.612518,110.226967 
	C174.671188,109.822334 173.897903,109.297050 173.511459,108.827866 
	C174.240372,106.806885 174.969284,104.785912 176.216537,102.643631 
	C177.158234,102.016121 177.581558,101.509926 178.143173,100.948532 
	C178.186417,100.927322 178.091385,100.961296 177.507538,101.112244 
	C176.709198,101.357529 176.399673,101.485840 176.090149,101.614159 
	C175.981735,94.159546 175.873306,86.704926 175.926941,78.505630 
	C175.708359,75.604439 175.937057,73.047783 174.832916,71.366409 
	C171.517639,66.317940 169.568527,59.607948 161.924301,59.027973 
	C156.212891,56.738083 150.501465,54.448193 144.603363,51.800602 
	C145.273697,51.162746 146.130722,50.882595 146.987732,50.602444 
	C129.869415,49.998981 112.832352,49.966564 95.796394,50.088314 
	C94.880463,50.094864 93.973801,51.396523 93.062828,52.095295 
	C93.062828,52.095295 93.001801,52.060467 92.691177,52.036461 
	C91.586624,52.340221 90.792686,52.667992 90.002457,53.464844 
	C89.985954,107.962349 89.965759,161.990768 89.686874,216.144836 
	C89.733459,216.887146 90.038750,217.503815 90.344032,218.120453 
	C88.343414,218.416977 86.342796,218.713486 84.127808,218.338776 
	C83.928963,217.109070 83.944496,216.550613 83.971199,215.524628 
	C83.963402,158.038620 83.944427,101.020096 83.989662,43.648087 
	C83.626984,43.098286 83.200104,42.901985 82.773216,42.705681 
	C83.073906,42.414082 83.374596,42.122486 84.690704,42.213299 
	C104.996468,42.721848 124.286789,42.871635 143.577255,42.891495 
	C144.386429,42.892330 145.196869,41.682865 146.006729,41.037247 
	C151.577057,42.719707 157.147400,44.402168 162.913376,46.740101 
	C163.336426,47.992302 163.394180,48.779976 163.817566,49.156151 
	C167.924561,52.805222 172.091888,56.386467 176.286087,59.934929 
	C176.299927,59.946632 176.957291,59.197674 177.314087,58.803989 
	C179.161819,61.647377 181.009552,64.490761 182.615570,67.931778 
	C182.841370,70.908516 183.139618,73.343079 183.888962,75.629807 
	C184.089783,76.242584 185.666397,76.404526 186.611404,76.773438 
	C190.083710,89.216736 188.899078,101.303757 183.489410,113.044312 
	C182.913742,112.644394 182.681396,112.293968 182.449051,111.943542 
	C182.218994,112.153671 181.906418,112.320709 181.770905,112.580208 
	C177.885910,120.019035 173.579163,127.095894 166.534653,132.110306 
	C165.693939,132.708755 165.614868,134.377213 165.182770,135.549713 
	C164.381500,136.155594 163.580246,136.761475 162.350204,137.151169 
	C161.288086,136.881454 160.654770,136.827927 160.021439,136.774414 
	C160.297043,137.284943 160.572662,137.795486 160.848282,138.306015 
	C158.775726,139.121750 156.703171,139.937485 153.908569,140.504227 
	C152.666382,140.432251 152.146240,140.609268 151.626099,140.786285 
	C151.882797,141.250168 152.139481,141.714081 152.396179,142.177979 
M143.410645,118.482719 
	C143.410645,118.482719 143.522888,118.415504 143.410645,118.482719 
z"/>
<path fill="#2C2B2B" opacity="1.000000" stroke="none" 
	d="
M83.960022,215.992142 
	C83.944496,216.550613 83.928963,217.109070 83.816513,218.075592 
	C82.856682,216.487823 81.244919,214.493835 81.239975,212.495895 
	C81.104195,157.536499 81.122597,102.576698 81.179840,47.617020 
	C81.181496,46.031265 81.883469,44.446243 82.516060,42.783279 
	C83.200104,42.901985 83.626984,43.098286 83.707169,43.950775 
	C83.231781,45.585087 82.990791,46.563164 82.990463,47.541325 
	C82.972321,102.295708 82.966988,157.050095 83.015488,211.804443 
	C83.016724,213.200623 83.631424,214.596252 83.960022,215.992142 
z"/>
<path fill="#070707" opacity="1.000000" stroke="none" 
	d="
M90.676437,217.963776 
	C90.038750,217.503815 89.733459,216.887146 90.001251,215.860962 
	C90.711197,214.474686 90.967453,213.497986 90.967827,212.521194 
	C90.987411,160.738754 90.993088,108.956314 90.944275,57.173927 
	C90.942963,55.780910 90.327713,54.388470 89.998756,52.995762 
	C90.792686,52.667992 91.586624,52.340221 92.725067,52.027184 
	C92.918060,54.016418 92.635345,55.990837 92.634224,57.965424 
	C92.605324,108.725647 92.628578,159.485916 92.533524,210.245987 
	C92.528801,212.767288 91.539619,215.286774 90.676437,217.963776 
z"/>
<path fill="#070707" opacity="1.000000" stroke="none" 
	d="
M115.221748,133.530396 
	C114.962700,133.994690 114.766144,133.994186 114.278214,133.523163 
	C113.987526,116.094910 114.016510,99.137047 113.945778,82.179596 
	C113.938591,80.455017 113.331688,78.732941 113.003082,77.009705 
	C113.798210,76.354660 114.593346,75.699615 116.177872,75.015640 
	C125.976120,74.990700 134.984970,74.994682 143.993820,74.998672 
	C149.722946,75.968437 153.469376,79.944389 152.984604,85.012016 
	C149.446426,78.172722 143.905609,75.372704 135.938644,76.052879 
	C129.348236,76.615540 122.671570,76.167900 115.284248,76.167900 
	C115.284248,95.288399 115.284248,114.176994 115.221748,133.530396 
z"/>
<path fill="#1F1F1F" opacity="1.000000" stroke="none" 
	d="
M93.526390,52.128860 
	C93.973801,51.396523 94.880463,50.094864 95.796394,50.088314 
	C112.832352,49.966564 129.869415,49.998981 146.987732,50.602444 
	C146.130722,50.882595 145.273697,51.162746 144.212524,51.708771 
	C127.335556,52.037239 110.662758,52.099834 93.526390,52.128860 
z"/>
<path fill="#111111" opacity="1.000000" stroke="none" 
	d="
M104.010109,70.325104 
	C105.063065,70.561279 106.869545,71.124107 106.873077,71.698036 
	C107.015175,94.784073 106.994270,117.871117 106.000397,140.960999 
	C106.000397,139.361160 106.000435,137.761322 106.000389,136.161484 
	C105.999840,116.523705 106.026627,96.885818 105.950073,77.248337 
	C105.943504,75.562935 105.251122,73.880211 104.487122,72.101593 
	C104.038864,71.556938 103.980804,71.106941 104.010109,70.325104 
z"/>
<path fill="#171717" opacity="1.000000" stroke="none" 
	d="
M144.753891,65.113899 
	C144.546692,65.819046 143.961182,66.793175 143.381439,66.789757 
	C131.396835,66.719223 119.412865,66.537521 107.159607,66.037445 
	C108.615059,65.414932 110.338577,64.897263 112.064491,64.889168 
	C122.835457,64.838631 133.606949,64.902023 144.753891,65.113899 
z"/>
<path fill="#242424" opacity="1.000000" stroke="none" 
	d="
M145.684479,40.915565 
	C145.196869,41.682865 144.386429,42.892330 143.577255,42.891495 
	C124.286789,42.871635 104.996468,42.721848 85.314636,42.287155 
	C84.923149,41.978603 85.207031,41.799980 85.798393,41.858368 
	C104.385765,41.948124 122.381805,41.999939 140.377686,41.965309 
	C141.590668,41.962975 142.802399,41.308258 144.014709,40.956963 
	C144.463882,40.902603 144.913071,40.848244 145.684479,40.915565 
z"/>
<path fill="#070707" opacity="1.000000" stroke="none" 
	d="
M165.513031,135.419891 
	C165.614868,134.377213 165.693939,132.708755 166.534653,132.110306 
	C173.579163,127.095894 177.885910,120.019035 181.770905,112.580208 
	C181.906418,112.320709 182.218994,112.153671 182.449051,111.943542 
	C182.681396,112.293968 182.913742,112.644394 183.204575,113.307922 
	C179.860291,122.776466 173.389511,129.465530 165.513031,135.419891 
z"/>
<path fill="#070707" opacity="1.000000" stroke="none" 
	d="
M173.270859,109.050186 
	C173.897903,109.297050 174.671188,109.822334 174.612518,110.226967 
	C173.795273,115.862083 161.592758,128.296097 155.465240,129.248856 
	C162.635559,123.811302 169.139084,117.728073 173.270859,109.050186 
z"/>
<path fill="#040404" opacity="1.000000" stroke="none" 
	d="
M143.551605,40.872894 
	C142.802399,41.308258 141.590668,41.962975 140.377686,41.965309 
	C122.381805,41.999939 104.385765,41.948124 85.883698,41.851334 
	C86.856941,41.444538 88.335274,40.811253 89.815720,40.806271 
	C107.573135,40.746471 125.330864,40.779819 143.551605,40.872894 
z"/>
<path fill="#070707" opacity="1.000000" stroke="none" 
	d="
M162.115768,59.304260 
	C169.568527,59.607948 171.517639,66.317940 174.832916,71.366409 
	C175.937057,73.047783 175.708359,75.604439 175.951492,78.109497 
	C172.596527,71.246292 168.917007,64.365128 162.115768,59.304260 
z"/>
<path fill="#070707" opacity="1.000000" stroke="none" 
	d="
M177.229034,58.524567 
	C176.957291,59.197674 176.299927,59.946632 176.286087,59.934929 
	C172.091888,56.386467 167.924561,52.805222 163.817566,49.156151 
	C163.394180,48.779976 163.336426,47.992302 163.120850,47.023598 
	C167.803116,50.516132 172.473541,54.380642 177.229034,58.524567 
z"/>
<path fill="#171717" opacity="1.000000" stroke="none" 
	d="
M141.344635,145.130814 
	C139.295456,144.698318 137.582382,144.066971 135.862366,144.047424 
	C126.923767,143.945786 117.983398,144.000092 109.045082,143.155243 
	C119.948570,143.155243 130.852112,143.146042 141.755356,143.197083 
	C142.103622,143.198700 142.449020,143.818710 142.901337,144.540527 
	C142.563797,145.025131 142.120667,145.119659 141.344635,145.130814 
z"/>
<path fill="#070707" opacity="1.000000" stroke="none" 
	d="
M152.584473,116.026733 
	C152.004944,115.608124 151.379486,114.833054 151.531219,114.625107 
	C154.549438,110.488892 157.641998,106.406204 160.779404,102.359116 
	C161.008041,102.064171 161.693832,102.123627 162.532440,102.008202 
	C162.722610,102.520454 162.547409,103.042831 161.935776,103.989853 
	C161.388519,104.820778 161.277710,105.227066 161.166885,105.633362 
	C158.411392,109.067017 155.655899,112.500671 152.584473,116.026733 
z"/>
<path fill="#070707" opacity="1.000000" stroke="none" 
	d="
M186.584167,76.454315 
	C185.666397,76.404526 184.089783,76.242584 183.888962,75.629807 
	C183.139618,73.343079 182.841370,70.908516 182.629791,68.287857 
	C183.831940,69.811150 184.778168,71.576019 185.618958,73.800552 
	C185.668320,74.506126 185.823120,74.752037 185.977921,74.997940 
	C186.170914,75.377029 186.363922,75.756111 186.584167,76.454315 
z"/>
<path fill="#070707" opacity="1.000000" stroke="none" 
	d="
M153.074066,95.345383 
	C156.693970,97.676109 154.889221,99.349442 151.721588,100.801727 
	C151.858978,99.075157 152.389053,97.384460 153.074066,95.345383 
z"/>
<path fill="#040404" opacity="1.000000" stroke="none" 
	d="
M104.023773,187.243439 
	C104.574997,189.274216 105.051155,191.687943 105.039658,194.449707 
	C104.350906,192.407303 104.149811,190.016861 104.023773,187.243439 
z"/>
<path fill="#070707" opacity="1.000000" stroke="none" 
	d="
M149.218582,103.973465 
	C150.858444,106.559517 149.729584,108.000816 145.954468,107.794220 
	C146.862732,106.364487 147.918884,105.247231 149.218582,103.973465 
z"/>
<path fill="#070707" opacity="1.000000" stroke="none" 
	d="
M164.930420,90.827484 
	C164.107056,92.072617 163.360382,93.128952 162.293854,94.637772 
	C162.293854,92.167000 162.293854,90.174355 162.293854,87.863579 
	C162.973129,88.577415 163.542831,89.176094 164.437775,89.830208 
	C164.967590,90.096725 165.048935,90.347740 164.930420,90.827484 
z"/>
<path fill="#070707" opacity="1.000000" stroke="none" 
	d="
M161.201645,77.289581 
	C161.094666,78.327354 160.996719,79.100891 160.898773,79.874435 
	C160.648941,79.915688 160.399109,79.956947 160.149277,79.998207 
	C160.007416,78.739151 159.865555,77.480103 160.008072,76.048264 
	C160.598526,76.258766 160.904602,76.642052 161.201645,77.289581 
z"/>
<path fill="#040404" opacity="1.000000" stroke="none" 
	d="
M104.373672,219.300476 
	C104.969193,220.368881 105.296883,221.608429 105.153114,223.372589 
	C104.489723,222.421997 104.297791,220.946823 104.373672,219.300476 
z"/>
<path fill="#070707" opacity="1.000000" stroke="none" 
	d="
M161.052948,138.291595 
	C160.572662,137.795486 160.297043,137.284943 160.021439,136.774414 
	C160.654770,136.827927 161.288086,136.881454 162.057404,137.241943 
	C161.881470,137.791672 161.569550,138.034409 161.052948,138.291595 
z"/>
<path fill="#070707" opacity="1.000000" stroke="none" 
	d="
M152.572662,142.224976 
	C152.139481,141.714081 151.882797,141.250168 151.626099,140.786285 
	C152.146240,140.609268 152.666382,140.432251 153.563568,140.315338 
	C153.940628,140.375458 153.892532,140.486877 153.552582,140.800629 
	C153.141678,141.411667 153.070724,141.708969 152.999786,142.006256 
	C152.999786,142.006256 152.749161,142.271988 152.572662,142.224976 
z"/>
<path fill="#070707" opacity="1.000000" stroke="none" 
	d="
M140.964203,134.396347 
	C140.854614,135.069458 140.724533,135.773438 140.594467,136.477402 
	C140.373474,136.417099 140.152496,136.356796 139.931503,136.296494 
	C140.095932,135.809479 140.260361,135.322479 140.684464,134.592957 
	C140.944122,134.350449 140.943726,134.427200 140.964203,134.396347 
z"/>
<path fill="#070707" opacity="1.000000" stroke="none" 
	d="
M176.120605,101.711578 
	C176.399673,101.485840 176.709198,101.357529 177.509369,101.114609 
	C178.000000,101.000000 178.004883,101.003723 178.004883,101.003723 
	C177.581558,101.509926 177.158234,102.016121 176.402740,102.340500 
	C176.070572,102.158691 176.151077,101.808990 176.120605,101.711578 
z"/>
<path fill="#040404" opacity="1.000000" stroke="none" 
	d="
M153.318054,141.981415 
	C153.070724,141.708969 153.141678,141.411667 153.508820,140.758575 
	C153.748795,140.920715 153.692566,141.438644 153.318054,141.981415 
z"/>
<path fill="#040404" opacity="1.000000" stroke="none" 
	d="
M161.437546,105.443649 
	C161.277710,105.227066 161.388519,104.820778 161.743744,104.208290 
	C161.894821,104.419380 161.801514,104.836662 161.437546,105.443649 
z"/>
<path fill="#040404" opacity="1.000000" stroke="none" 
	d="
M186.021622,74.736931 
	C185.823120,74.752037 185.668320,74.506126 185.645325,74.146103 
	C185.873199,74.179955 185.969269,74.327934 186.021622,74.736931 
z"/>
<path fill="#242424" opacity="1.000000" stroke="none" 
	d="
M83.971199,215.524628 
	C83.631424,214.596252 83.016724,213.200623 83.015488,211.804443 
	C82.966988,157.050095 82.972321,102.295708 82.990463,47.541325 
	C82.990791,46.563164 83.231781,45.585087 83.642960,44.304276 
	C83.944427,101.020096 83.963402,158.038620 83.971199,215.524628 
z"/>
<path fill="#242424" opacity="1.000000" stroke="none" 
	d="
M90.002457,53.464844 
	C90.327713,54.388470 90.942963,55.780910 90.944275,57.173927 
	C90.993088,108.956314 90.987411,160.738754 90.967827,212.521194 
	C90.967453,213.497986 90.711197,214.474686 90.259949,215.735306 
	C89.965759,161.990768 89.985954,107.962349 90.002457,53.464844 
z"/>
<path fill="#1F1F1F" opacity="1.000000" stroke="none" 
	d="
M113.004318,77.477356 
	C113.331688,78.732941 113.938591,80.455017 113.945778,82.179596 
	C114.016510,99.137047 113.987526,116.094910 113.983383,133.519836 
	C113.655380,132.262192 113.056068,130.538544 113.048866,128.812408 
	C112.978065,111.856842 113.005791,94.900871 113.004318,77.477356 
z"/>
<path fill="#242424" opacity="1.000000" stroke="none" 
	d="
M143.712067,74.689026 
	C134.984970,74.994682 125.976120,74.990700 116.502945,74.988708 
	C119.071388,74.663391 122.101990,74.087349 125.137352,74.061119 
	C131.233643,74.008453 137.332520,74.255836 143.712067,74.689026 
z"/>
<path fill="#070707" opacity="1.000000" stroke="none" 
	d="
M143.466766,118.449112 
	C143.522888,118.415504 143.410645,118.482719 143.466766,118.449112 
z"/>
<path fill="#070707" opacity="1.000000" stroke="none" 
	d="
M177.998169,100.997635 
	C178.091385,100.961296 178.186417,100.927322 178.143173,100.948532 
	C178.004883,101.003723 178.000000,101.000000 177.998169,100.997635 
z"/>
</svg>